<svg width="444" height="448" viewBox="0 0 444 448" fill="#cc0000" xmlns="http://www.w3.org/2000/svg">
<path d="M209.924 30.4879C176.145 31.0957 143.327 36.5373 110.389 46.9904C107.684 47.8505 101.467 49.9262 101.211 50.0581C100.757 50.2932 100.421 50.8437 100.416 51.3483C100.416 51.5031 101.626 58.9115 103.109 67.8107C105.184 80.2879 105.826 84.038 105.922 84.2157C106.155 84.6859 104.666 83.9004 126.102 94.881C127.557 95.6265 136.968 100.443 147.015 105.592C157.062 110.741 172.73 118.763 181.822 123.425C190.921 128.081 199.155 132.301 200.121 132.8C202.241 133.884 204.15 134.864 211.072 138.414C213.97 139.899 216.459 141.143 216.601 141.178C216.743 141.212 216.976 141.229 217.113 141.212C217.255 141.189 218.045 140.862 218.914 140.461C220.608 139.681 223.012 138.574 227.086 136.699C228.541 136.028 230.609 135.077 231.689 134.578C232.769 134.079 234.241 133.402 234.957 133.07C235.679 132.737 244.14 128.838 253.767 124.4C263.394 119.962 272.151 115.925 273.231 115.426C274.311 114.927 276.97 113.7 279.141 112.702C283.42 110.73 285.892 109.589 287.409 108.889C287.944 108.643 290.154 107.622 292.325 106.624C294.496 105.621 297.019 104.463 297.923 104.044C298.832 103.625 301.065 102.593 302.895 101.75C304.725 100.908 306.657 100.019 307.186 99.7722C307.72 99.5256 309.34 98.7802 310.794 98.1093C312.249 97.4384 315.511 95.9361 318.04 94.7721C320.574 93.6024 323.387 92.3065 324.291 91.8879C333.128 87.8167 335.088 86.9107 335.105 86.8993C335.117 86.8935 336.657 79.6629 338.532 70.8382C342.317 53.0283 342.084 54.2612 341.737 53.6935C341.641 53.5444 341.465 53.3437 341.34 53.2577C340.93 52.971 333.367 50.3735 327.473 48.487C289.58 36.3882 251.949 30.356 214.982 30.4592C212.623 30.4649 210.344 30.4764 209.924 30.4879ZM262.291 71.1536C262.257 71.1766 258.274 73.9346 253.426 77.2776C248.584 80.6205 239.236 87.0713 232.655 91.6069C226.075 96.1483 220.534 99.9729 220.341 100.105L219.983 100.351L209.089 92.7365C203.093 88.5564 193.699 81.9967 188.216 78.1663C182.732 74.336 178.219 71.1823 178.191 71.1536C178.157 71.1249 195.529 71.102 220.238 71.102C243.714 71.102 262.32 71.1249 262.291 71.1536Z" fill="black"/>
<path d="M40.064 43.4124C39.5241 43.6589 39.1547 44.2037 39.1547 44.7599C39.1547 45.0982 61.2098 172.342 61.3519 172.818C61.4144 173.024 61.5224 173.208 61.6815 173.374C61.9202 173.627 111.145 208.145 111.497 208.312C111.679 208.398 114.702 208.403 148.89 208.403H186.084L186.408 208.243C186.994 207.95 187.284 207.423 187.238 206.752C187.215 206.477 173.287 130.897 173.247 130.874C173.247 130.868 171.633 130.025 169.661 129.004C164.995 126.573 158 122.926 155.88 121.82C154.96 121.338 152.289 119.945 149.942 118.723C147.6 117.502 145.321 116.315 144.884 116.086C144.446 115.856 141.008 114.061 137.24 112.1C130.705 108.694 124.943 105.69 119.368 102.783C117.964 102.049 114.896 100.449 112.549 99.2275C110.207 98.0061 107.98 96.8478 107.604 96.6471C107.229 96.4522 105.172 95.3799 103.03 94.2675C100.887 93.1551 99.103 92.2147 99.0632 92.1803C99.0234 92.1402 96.8867 81.4806 94.2839 68.3382C91.6925 55.2646 89.5388 44.456 89.499 44.3241C89.4024 44.003 89.0273 43.5901 88.6806 43.4296L88.3965 43.292H64.3581H40.3197L40.064 43.4124ZM117.521 122.823C138.354 132.324 155.42 140.123 155.454 140.151C155.499 140.197 156.011 149.945 155.965 149.991C155.943 150.014 154.499 149.36 144.884 144.985C143.088 144.171 138.849 142.238 136.218 141.046C135.109 140.541 133.956 140.014 133.66 139.882C133.365 139.75 132.211 139.228 131.103 138.723C129 137.766 118.669 133.064 117.237 132.416C116.782 132.21 116.146 131.917 115.816 131.768C115.487 131.619 111.719 129.899 107.434 127.955C99.0575 124.148 99.2905 124.251 93.6247 121.676C86.1802 118.287 77.1899 114.205 76.5535 113.918C76.2011 113.758 75.8999 113.597 75.8886 113.563C75.8715 113.522 75.0702 103.62 75.0702 103.476C75.0702 103.465 76.0988 103.924 77.3604 104.497C78.6163 105.076 96.6878 113.322 117.521 122.823ZM83.9639 143.179C85.8108 143.959 91.0106 146.166 95.5285 148.081C111.747 154.957 118.436 157.789 127.693 161.717C132.865 163.907 141.065 167.382 145.907 169.435C150.754 171.493 156.744 174.028 159.216 175.077L163.722 176.981V181.62C163.722 186.012 163.717 186.253 163.626 186.218C163.472 186.155 81.1282 149.24 81.0997 149.217C81.077 149.2 80.1962 141.854 80.1848 141.648C80.1848 141.596 80.2416 141.602 80.4007 141.671C80.5144 141.717 82.1226 142.399 83.9639 143.179Z" fill="black"/>
<path d="M354.279 47.5638C353.984 47.6957 353.705 47.9365 353.558 48.1888C353.455 48.3666 351.887 54.6453 347.761 71.4174C344.647 84.0667 342.073 94.4338 342.033 94.4567C341.993 94.4797 324.575 103.012 303.321 113.413C267.196 131.086 264.661 132.336 264.388 132.605C264.229 132.76 264.07 132.978 264.036 133.087C263.996 133.196 260.962 149.555 257.29 169.441C253.614 189.326 250.522 206.07 250.414 206.655C250.306 207.239 250.215 207.859 250.215 208.031C250.221 208.581 250.522 209.069 251.034 209.338L251.323 209.493L291.16 209.51C324.041 209.522 331.042 209.51 331.253 209.447C331.468 209.384 338.174 205.152 354.609 194.711C355.501 194.143 357.212 193.059 358.416 192.297C359.621 191.528 361.281 190.479 362.11 189.951C362.94 189.424 367.39 186.603 371.998 183.678C380.921 178.007 380.659 178.191 380.801 177.652C380.835 177.537 386.103 149.406 392.514 115.139C398.924 80.8728 404.322 52.0134 404.51 51.0042C404.879 49.0547 404.902 48.7335 404.709 48.3322C404.584 48.0627 404.271 47.7473 403.999 47.6097C403.8 47.5122 402.834 47.5065 379.13 47.495C357.95 47.4835 354.438 47.495 354.279 47.5638ZM366.429 116.997V121.722L365.992 121.894C365.747 121.986 360.292 124.148 353.87 126.693C339.856 132.244 329.059 136.522 321.904 139.354C319 140.507 314.471 142.302 311.846 143.339C309.22 144.377 303.316 146.722 298.718 148.54C294.127 150.358 289.353 152.25 288.12 152.737C286.887 153.225 285.818 153.649 285.75 153.678L285.619 153.729V149.039L285.625 144.354L290.609 142.376C293.348 141.292 296.155 140.174 296.843 139.905C297.531 139.629 302.196 137.777 307.214 135.782C336.202 124.262 359.979 114.813 363.531 113.396C365.077 112.783 366.361 112.278 366.39 112.278C366.412 112.272 366.429 114.4 366.429 116.997ZM357.411 156.832C357.382 156.849 351.381 159.355 344.067 162.388C336.754 165.421 327.087 169.435 322.586 171.304C318.085 173.174 307.089 177.744 298.15 181.453C289.211 185.163 280.312 188.862 278.374 189.665C276.436 190.473 274.816 191.144 274.782 191.155C274.725 191.178 274.708 190.106 274.708 185.92L274.714 180.651L278.931 179.022C281.249 178.128 284.466 176.883 286.074 176.264C317.932 163.93 330.235 159.171 332.219 158.403C333.548 157.887 336.742 156.648 339.322 155.65C343.777 153.93 346.284 152.955 354.041 149.956L357.422 148.649L357.439 152.72C357.445 154.957 357.433 156.809 357.411 156.832Z" fill="black"/>
<path d="M187.625 139.475C187.13 139.658 186.721 140.18 186.653 140.713C186.63 140.908 187.903 148.821 191.693 172.021L196.768 203.071L196.797 261.415C196.825 317.063 196.831 319.764 196.927 319.942C197.052 320.183 197.371 320.504 197.609 320.63C197.78 320.727 198.814 320.733 218.323 320.75C238.19 320.762 238.867 320.762 239.094 320.659C239.441 320.504 239.685 320.269 239.861 319.936L240.015 319.644L240.032 260.818L240.043 201.987L245.697 171.562C248.806 154.825 251.352 141.006 251.352 140.851C251.352 140.283 250.926 139.698 250.369 139.48C249.823 139.274 249.704 139.308 246.294 140.759C244.589 141.482 241.18 142.932 238.708 143.982C232.974 146.413 220.017 151.906 218.289 152.64L216.965 153.202L216.556 153.001C215.823 152.64 197.234 143.615 196.086 143.064C195.711 142.881 194.7 142.393 193.842 141.975C192.983 141.556 191.921 141.04 191.483 140.828C191.046 140.616 190.216 140.214 189.636 139.933C188.687 139.475 188.551 139.423 188.216 139.412C187.994 139.4 187.755 139.429 187.625 139.475Z" fill="black"/>
<path d="M64.6252 189.143C64.2558 189.326 63.9546 189.676 63.841 190.055C63.7614 190.324 64.0569 195.072 69.1033 275.434C72.7573 333.532 74.4792 360.619 74.5361 360.826C74.5872 361.02 74.6952 361.21 74.8543 361.382C75.0759 361.623 78.1447 363.251 107.86 378.888C125.88 388.372 140.752 396.176 140.906 396.227C141.258 396.359 141.457 396.359 141.827 396.25C142.207 396.136 142.588 395.792 142.753 395.407L142.889 395.104L143.219 332.058C143.401 297.384 143.543 268.393 143.531 267.636C143.52 266.346 143.514 266.243 143.395 266.03C143.327 265.904 143.19 265.721 143.082 265.618C142.918 265.457 137.843 262.217 109.906 244.425C98.8586 237.389 97.9437 236.804 97.9039 236.77C97.8868 236.747 97.0515 230.164 96.0456 222.136C95.0454 214.109 94.21 207.463 94.193 207.36C94.1589 207.159 95.7842 208.214 75.9795 195.536C72.5584 193.346 68.9157 191.018 67.8815 190.353C66.8529 189.693 65.9095 189.12 65.7845 189.074C65.4265 188.942 64.9662 188.971 64.6252 189.143Z" fill="black"/>
<path d="M374.499 192.761C374.323 192.847 373.237 193.581 372.084 194.389C370.924 195.198 363.821 200.164 356.285 205.422C348.756 210.68 342.561 215.009 342.522 215.043C342.476 215.089 342.283 218.536 341.885 226.208C341.567 232.309 341.294 237.464 341.277 237.653L341.249 238.008L317.318 252.59C301.997 261.931 293.297 267.263 293.149 267.412C292.996 267.556 292.876 267.751 292.814 267.928C292.729 268.192 292.723 273.152 292.734 332.947L292.751 397.684L292.905 397.953C293.217 398.487 293.774 398.785 294.348 398.727C294.57 398.705 295.297 398.406 297.195 397.563C298.593 396.944 300.076 396.285 300.48 396.107C302.776 395.092 306.095 393.618 307.555 392.965C308.476 392.552 321.148 386.927 335.714 380.453C350.279 373.985 362.377 368.601 362.605 368.492C363.054 368.274 363.309 368.005 363.446 367.597C363.508 367.425 364.338 356.697 366.145 332.803C367.583 313.801 370.521 274.924 372.68 246.409C374.834 217.888 376.602 194.378 376.602 194.16C376.602 193.696 376.505 193.438 376.221 193.117C375.937 192.801 375.624 192.652 375.181 192.623C374.857 192.6 374.772 192.618 374.499 192.761Z" fill="black"/>
<path d="M184.022 238.003C183.891 238.048 183.635 238.22 183.459 238.381C182.237 239.499 154.579 265.119 154.272 265.423C154.056 265.629 153.829 265.904 153.76 266.03L153.635 266.26L153.618 333.067L153.607 399.874L160.267 404.628C163.933 407.243 167.019 409.421 167.121 409.473C167.632 409.743 168.32 409.634 168.763 409.227C168.9 409.095 169.053 408.917 169.093 408.837C169.161 408.705 185.658 353.572 185.658 353.48C185.658 353.463 199.854 353.452 217.209 353.457L248.76 353.474L257.29 380.814C264.525 403.986 265.854 408.183 265.997 408.366C266.087 408.481 266.292 408.653 266.44 408.751C266.684 408.905 266.764 408.923 267.173 408.923C267.542 408.923 267.684 408.894 267.889 408.791C268.031 408.716 271.367 406.91 275.305 404.777C280.016 402.22 282.528 400.826 282.653 400.7C282.761 400.591 282.903 400.385 282.971 400.241L283.09 399.978V333.176V266.375L282.931 266.053C282.789 265.755 281.499 264.54 268.44 252.406C260.558 245.078 253.898 238.88 253.636 238.639C253.011 238.043 252.801 237.939 252.261 237.934C251.892 237.934 251.795 237.957 251.534 238.1C251.181 238.301 250.926 238.622 250.812 239.017C250.738 239.264 250.727 244.912 250.727 284.248V329.191H218.988C201.53 329.191 187.249 329.174 187.249 329.145C187.249 329.122 186.982 308.875 186.653 284.15C186.278 255.847 186.039 239.121 186.005 239C185.761 238.169 184.84 237.71 184.022 238.003Z" fill="black"/>
<path d="M192.324 362.615C192.017 362.758 191.654 363.142 191.546 363.44C191.5 363.572 188.494 375.39 184.863 389.696C179.799 409.679 178.271 415.786 178.271 416.044C178.271 416.692 178.714 417.289 179.322 417.466C179.572 417.541 184.368 417.552 217.653 417.541L255.699 417.524L255.989 417.369C256.5 417.099 256.807 416.583 256.807 416.01C256.807 415.832 254.301 407.099 249.226 389.553C240.969 360.998 241.594 363.056 241.038 362.706L240.765 362.534L216.664 362.523C193.12 362.506 192.557 362.511 192.324 362.615Z" fill="black"/>
</svg>
