<svg width="354" height="380" viewBox="0 0 354 380" fill="none" xmlns="http://www.w3.org/2000/svg">
<path d="M122.911 0.541776C122.308 0.759669 121.877 1.3044 121.769 1.98102C121.74 2.14157 121.996 4.06247 122.587 8.20244C123.059 11.4995 127.929 45.6342 133.413 84.0637C138.897 122.493 143.403 154.002 143.426 154.088C143.494 154.323 175.136 185.568 175.477 185.734C176 185.992 176.795 185.929 177.239 185.596C177.33 185.527 178.443 184.478 179.705 183.262C182.393 180.676 187.905 175.372 197.203 166.433C206.704 157.299 207.42 156.605 207.568 156.404C207.648 156.307 207.744 156.095 207.795 155.94C207.846 155.779 213.512 121.593 220.388 79.9639C230.089 21.2703 232.891 4.21729 232.862 4.0166C232.777 3.426 232.413 2.9214 231.879 2.65763C231.203 2.31933 230.328 2.49708 229.839 3.07048C229.72 3.2081 222.156 16.8264 212.83 33.6845L196.038 64.0519L178.313 64.0347L160.582 64.0233L142.812 32.6868C133.032 15.4503 124.951 1.23559 124.849 1.09224C124.724 0.920222 124.542 0.776872 124.303 0.650723C123.991 0.484436 123.883 0.4615 123.536 0.4615C123.309 0.467234 123.03 0.501638 122.911 0.541776ZM192.639 92.9343C192.628 92.9629 189.247 103.68 185.121 116.759C181.001 129.844 177.614 140.544 177.597 140.544C177.574 140.544 162.088 93.2095 162.037 92.9744C162.02 92.9056 164.026 92.8941 177.341 92.8941C185.769 92.8941 192.651 92.9113 192.639 92.9343Z" fill="black"/>
<path d="M1.75839 16.534C1.0253 16.7461 0.525214 17.4113 0.519531 18.1854C0.519531 18.3975 4.09972 49.1377 8.4755 86.5064C16.2951 153.273 16.4315 154.455 16.5906 154.764C16.7668 155.12 172.738 378.782 172.999 379.057C173.096 379.154 173.289 379.298 173.437 379.372C173.664 379.487 173.784 379.51 174.244 379.51C174.727 379.51 174.812 379.493 175.039 379.355C175.182 379.275 175.386 379.103 175.5 378.982C175.613 378.862 185.854 364.727 198.265 347.571C210.671 330.415 246.427 280.982 277.723 237.719C309.018 194.455 334.659 158.973 334.704 158.864C334.801 158.623 353.481 20.8345 353.481 20.3414C353.481 19.1544 352.253 18.3287 351.134 18.7531C350.895 18.8448 350.719 18.9652 350.52 19.1774C350.366 19.3379 343.973 27.9562 336.318 38.3348C328.658 48.7076 322.344 57.2284 322.293 57.2686C322.242 57.303 314.564 59.608 305.233 62.389C246.245 79.9696 235.738 83.1061 235.528 83.2093C235.209 83.3641 234.891 83.691 234.732 84.035C234.624 84.2701 234.215 86.7931 232.493 97.9114C230.947 107.843 230.39 111.581 230.407 111.799C230.47 112.418 230.805 112.906 231.368 113.193C231.908 113.462 232.163 113.439 233.993 112.969C235.295 112.631 246.251 109.787 253.008 108.032C254.088 107.751 257.117 106.965 259.742 106.283C262.368 105.601 265.794 104.712 267.357 104.305C268.92 103.898 278.905 101.306 289.549 98.5421C300.193 95.7783 309.018 93.4847 309.166 93.4446C309.319 93.3987 309.439 93.3758 309.439 93.3815C309.439 93.5822 307.887 105.606 307.859 105.629C307.836 105.652 303.381 106.891 297.959 108.376C292.538 109.861 285.059 111.914 281.337 112.935C277.62 113.955 269.295 116.237 262.839 118.009C256.384 119.781 248.627 121.908 245.592 122.74C242.563 123.571 237.573 124.936 234.51 125.779C231.447 126.616 228.822 127.344 228.68 127.39C228.14 127.568 227.68 128.061 227.555 128.606C227.486 128.892 226.242 145.389 226.242 145.974C226.242 146.163 226.282 146.439 226.333 146.588C226.458 146.96 226.901 147.436 227.276 147.597C227.844 147.843 227.89 147.838 232.72 146.605C237.369 145.418 242.904 144.019 261.362 139.346C267.596 137.763 279.808 134.672 288.497 132.47C297.186 130.269 304.301 128.468 304.307 128.474C304.318 128.48 304.017 131.392 303.642 134.942C303.267 138.497 302.96 141.433 302.96 141.461C302.96 141.53 303.182 141.467 296.368 143.268C287.634 145.578 285.287 146.198 267.982 150.779C261.953 152.373 255.94 153.967 254.628 154.311C253.315 154.661 250.991 155.275 249.456 155.682C247.928 156.089 244.268 157.058 241.33 157.832C230.754 160.63 231.044 160.55 229.282 161.175C223.15 163.365 216.95 167.373 211.268 172.827C210.301 173.75 176.733 203.704 176.659 203.704C176.619 203.704 168.805 196.33 159.298 187.316C149.791 178.303 141.693 170.648 141.3 170.304C136.623 166.158 131.088 162.792 125.394 160.625C123.934 160.068 123.132 159.799 120.086 158.864C118.507 158.383 115.694 157.517 113.835 156.943C111.977 156.37 109.124 155.493 107.499 154.994C105.874 154.495 100.515 152.849 95.5934 151.335C90.6721 149.822 84.8812 148.038 82.7218 147.379C80.568 146.714 76.3968 145.435 73.4587 144.529C66.7189 142.453 58.8084 140.022 56.3023 139.254C55.2453 138.927 54.3587 138.64 54.3417 138.612C54.319 138.589 53.9609 135.727 53.5461 132.258C53.1369 128.789 52.7846 125.893 52.7675 125.819C52.7505 125.739 52.7675 125.693 52.8187 125.693C52.8641 125.693 54.6315 126.209 56.7569 126.834C58.8766 127.465 70.7026 130.962 83.0343 134.609C119.967 145.533 122.774 146.364 124.434 146.863C126.201 147.39 126.519 147.436 127.048 147.23C127.616 147.006 128.065 146.404 128.133 145.773C128.156 145.59 127.718 142.493 126.769 136.043C126.002 130.836 125.343 126.467 125.315 126.324C125.229 125.974 124.928 125.526 124.638 125.326C124.508 125.234 124.087 125.062 123.678 124.936C123.081 124.752 118.262 123.273 113.892 121.937C112.091 121.387 87.0237 113.714 85.137 113.135C84.1197 112.826 82.574 112.35 81.6989 112.08C80.8237 111.816 78.9711 111.249 77.5788 110.819C76.1865 110.394 73.4928 109.569 71.5834 108.99C69.6797 108.405 65.9574 107.264 63.3149 106.455C60.6724 105.647 56.4046 104.339 53.8245 103.554C47.5677 101.639 47.5052 101.616 47.4882 101.598C47.4654 101.564 45.9765 89.9583 45.9936 89.9411C46.005 89.9296 47.4314 90.3425 49.1646 90.8585C50.8979 91.3746 63.5706 95.1361 77.3231 99.2187C91.0755 103.307 106.47 107.877 111.534 109.385C116.597 110.888 120.973 112.183 121.251 112.258C121.82 112.413 122.155 112.401 122.564 112.218C123.081 111.988 123.513 111.415 123.587 110.842C123.61 110.67 123.087 106.1 122.019 97.0799C120.263 82.2517 120.405 83.2437 119.95 82.785C119.836 82.6703 119.643 82.5212 119.518 82.4582C119.399 82.3951 108.522 79.0407 95.3547 74.9982C82.1876 70.9614 68.2305 66.6781 64.3378 65.4854C60.445 64.2927 55.2282 62.693 52.7448 61.9303C48.0167 60.4796 44.141 59.2927 42.743 58.8626C42.2884 58.725 39.9357 58.0025 37.5148 57.2571C34.1733 56.2307 33.0822 55.8752 32.9913 55.7777C32.9231 55.7089 26.3196 47.0218 18.3068 36.4712C10.2997 25.9206 3.62804 17.1705 3.48597 17.0214C3.04271 16.5569 2.35509 16.3677 1.75839 16.534ZM102.981 196.479C126.127 203.905 147.307 210.7 150.052 211.577C152.797 212.46 155.053 213.194 155.07 213.211C155.098 213.24 132.85 259.909 132.759 260.001C132.736 260.03 116.699 242.879 97.1221 221.898C77.5447 200.918 61.3657 183.578 61.1611 183.36C60.9622 183.148 60.8201 182.976 60.8485 182.976C60.8713 182.976 79.8349 189.054 102.981 196.479ZM290.02 186.772C289.833 186.972 273.813 203.544 254.429 223.601C235.045 243.659 219.161 260.07 219.127 260.07C219.064 260.07 196.782 214.685 196.827 214.645C196.856 214.61 199.385 213.842 207.147 211.503C212.864 209.782 217.581 208.36 256.276 196.68C274.966 191.044 290.282 186.422 290.316 186.422C290.344 186.416 290.214 186.577 290.02 186.772Z" fill="black"/>
<path d="M18.1534 183.131C17.8124 183.251 17.3748 183.67 17.193 184.048C17.0623 184.318 17.0396 184.438 17.0396 184.805C17.0452 185.046 19.54 216.371 22.5917 254.422C26.4901 303.081 28.1609 323.689 28.2234 323.901C28.3257 324.245 28.7291 324.727 29.0417 324.887C29.1554 324.945 55.6658 336.505 87.95 350.57C120.24 364.636 148.063 376.757 149.779 377.509L152.905 378.879H153.416C153.877 378.879 153.956 378.862 154.235 378.707C155.047 378.254 155.383 377.222 154.973 376.413C154.752 375.96 20.1424 183.658 19.9094 183.452C19.4775 183.068 18.716 182.924 18.1534 183.131Z" fill="black"/>
<path d="M331.67 185.39C331.454 185.493 331.244 185.659 331.124 185.803C330.749 186.273 195.651 375.485 195.503 375.748C195.373 375.978 195.356 376.075 195.356 376.528C195.356 376.952 195.378 377.084 195.486 377.285C195.674 377.646 195.907 377.893 196.248 378.082C196.521 378.231 196.6 378.248 197.06 378.243H197.572L201.18 376.746C203.164 375.92 230.606 364.601 262.157 351.585C293.708 338.575 319.679 327.852 319.872 327.766C320.298 327.565 320.605 327.261 320.781 326.871C320.912 326.585 321.293 322.64 327.567 256.738C331.227 218.326 334.204 186.812 334.187 186.703C334.136 186.428 333.926 185.963 333.738 185.745C333.653 185.648 333.431 185.482 333.238 185.39C332.943 185.235 332.829 185.212 332.454 185.212C332.079 185.212 331.965 185.235 331.67 185.39Z" fill="black"/>
</svg>
